<?xml version="1.0" encoding="utf-8"?>
<!-- Generator: Adobe Illustrator 16.0.4, SVG Export Plug-In . SVG Version: 6.00 Build 0)  -->
<!DOCTYPE svg PUBLIC "-//W3C//DTD SVG 1.1//EN" "http://www.w3.org/Graphics/SVG/1.1/DTD/svg11.dtd">
<svg version="1.1" id="Signature_Templates" xmlns="http://www.w3.org/2000/svg" xmlns:xlink="http://www.w3.org/1999/xlink"
	 x="0px" y="0px" width="115.2px" height="43.2px" viewBox="0 0 115.2 43.2" enable-background="new 0 0 115.2 43.2"
	 xml:space="preserve">
<g>
	<g>
		<path fill="#A90533" d="M57.77,21.885c-2.551,0-2.749-1.938-2.749-2.531c0-0.699,0.186-1.934,1.813-2.531
			c1.677-0.617,2.036-0.689,3.188-1.053v-0.297c0-0.561,0-0.695-0.108-1.043c-0.223-0.666-0.864-1.082-1.727-1.082
			c-1.274,0-1.795,0.969-1.799,0.98l-0.103,0.189l-0.472-0.279l0.047-0.145c0.229-0.734,1.155-1.979,3.173-1.979
			c1.312,0,2.17,0.373,2.696,1.176c0.395,0.639,0.428,1.52,0.428,2.443c0,0.809-0.021,1.713-0.037,2.441
			c-0.013,0.5-0.022,0.932-0.022,1.197c0,0.664,0.105,1.178,0.659,1.178c0.139,0,0.229-0.027,0.309-0.092l0.153-0.129l0.312,0.354
			l-0.104,0.133c-0.513,0.613-0.996,1.049-1.861,1.049c-0.747,0-1.268-0.355-1.438-0.955C59.708,21.344,58.952,21.885,57.77,21.885z
			 M60.022,16.936c-1.249,0.375-1.679,0.586-2.066,0.781c-0.539,0.273-0.82,0.826-0.82,1.479c0,0.508,0.183,1.363,1.405,1.363
			c0.402,0,0.98-0.076,1.481-0.436V16.936z"/>
	</g>
	<g>
		<g>
			<path fill="#A90533" d="M42.184,21.86c-1.222,0-2.151-0.133-3.108-0.445l-0.135-0.043v-0.684c0-0.912-0.018-1.271-0.039-1.561
				l-0.026-0.475l0.554,0.004l0.012,0.197c0.022,0.424,0.168,0.842,0.426,1.135c0.4,0.453,1.323,0.723,2.179,0.723
				c1.794,0,2.629-0.676,2.629-2.135c0-1.248-0.771-1.768-1.838-2.488l-0.17-0.115l-1.127-0.752
				c-1.565-1.035-2.361-1.865-2.361-3.523c0-0.812,0.306-3.461,4.25-3.461c1.62,0,2.868,0.211,2.922,0.221l0.17,0.029l-0.004,0.166
				c0,0.006-0.017,0.52-0.017,1.078c0,0.439-0.008,0.82,0.009,1.217l0.015,0.295h-0.478l-0.015-0.186
				c-0.033-0.5-0.179-0.861-0.455-1.139c-0.38-0.379-1.218-0.557-2.106-0.557c-2.092,0-2.334,1.074-2.334,1.881
				c0,1.109,0.567,1.484,1.81,2.307l1.428,0.943c1.212,0.811,2.36,1.576,2.36,3.59C46.732,21.491,43.551,21.86,42.184,21.86z"/>
		</g>
		<g>
			<path fill="#A90533" d="M51.528,21.92c-1.453,0-2.262-0.52-2.621-1.684c-0.146-0.461-0.146-1.373-0.146-1.916
				c0-1.506,0.014-2.711,0.031-4.109l0.006-0.656h-1.242v-0.369l0.122-0.049c0.579-0.238,0.798-0.402,1.054-0.6
				c0.905-0.701,1.534-1.887,1.543-1.904l0.21-0.359h0.412v2.115h3.204v1.166h-3.204v4.943c0,1.473,0.275,2.316,1.673,2.316
				c0.65,0,1.148-0.25,1.154-0.254l0.192-0.1l0.162,0.383l-0.08,0.092C53.966,20.973,53.239,21.92,51.528,21.92z"/>
		</g>
		<g>
			<path fill="#A90533" d="M64.329,21.799v-0.445l0.182-0.012c0.16-0.014,0.562-0.076,0.837-0.391
				c0.293-0.326,0.308-1.127,0.308-2.73v-2.689c0-1.156-0.018-1.654-0.187-1.906c-0.191-0.275-0.615-0.305-0.844-0.322
				c-0.027,0-0.053-0.004-0.076-0.006l-0.182-0.018v-0.539l0.214,0.018c0.037,0.002,0.085,0.004,0.146,0.004
				c0.29,0,0.977-0.037,1.7-0.18c0.551-0.088,0.876-0.279,0.995-0.332l0.105-0.051l0.183,0.109v0.746
				c0.477-0.352,1.432-0.902,2.729-0.902c1.697,0,2.805,0.791,3.12,2.23c0.089,0.357,0.123,1.223,0.123,1.684v2.746
				c0,1.553,0.062,1.99,0.353,2.264c0.148,0.135,0.456,0.244,0.729,0.262l0.183,0.016v0.439l-0.463-0.025
				c-0.677-0.035-1.26-0.066-1.869-0.066c-0.694,0-1.296,0-2.137,0.078l-0.216,0.02v-0.432l0.169-0.025
				c0.361-0.057,0.618-0.16,0.779-0.322c0.303-0.303,0.32-1.027,0.344-1.65c0.003-0.105,0.008-0.215,0.012-0.328
				c0.021-0.352,0.021-1.092,0.021-1.631c0-0.703,0-1.432-0.079-2.152c-0.139-1.215-0.773-1.781-1.998-1.781
				c-0.838,0-1.362,0.191-1.758,0.395v4.941c0,1.553,0.063,1.99,0.352,2.264c0.148,0.135,0.456,0.244,0.729,0.262l0.185,0.016v0.439
				l-0.501-0.027c-0.653-0.035-1.215-0.064-1.812-0.064c-0.677,0-1.315,0-2.159,0.078L64.329,21.799z"/>
		</g>
		<g>
			<path fill="#A90533" d="M76.068,21.799v-0.455l0.182-0.014c0.16-0.01,0.56-0.072,0.837-0.387
				c0.291-0.326,0.306-1.119,0.306-2.723v-4.666h-1.226v-0.527l0.123-0.053c0.533-0.219,0.862-0.393,1.103-0.58
				c0.002-0.834,0.029-1.91,0.143-2.496c0.37-1.941,1.639-2.928,3.773-2.928c0.92,0,1.79,0.307,2.298,0.717l0.072,0.061l0.03,0.199
				l-0.935,1.297l-0.224,0.002l-0.052-0.115c-0.358-0.799-0.877-1.111-1.586-1.111c-0.296,0-0.699,0.088-0.948,0.338
				c-0.407,0.406-0.476,1.012-0.476,2.213v1.818h2.096v1.166h-2.096v5.221c0,1.24,0.041,1.846,0.203,2.088
				c0.264,0.398,1.062,0.428,1.298,0.428h0.199v0.502l-0.208-0.014c-1.034-0.053-1.808-0.078-2.362-0.078
				c-0.7,0-1.493,0-2.335,0.078L76.068,21.799z"/>
		</g>
		<g>
			<path fill="#A90533" d="M86.893,21.959c-2.873,0-4.588-1.789-4.588-4.785c0-2.326,1.252-5.043,4.784-5.043
				c2.874,0,4.588,1.789,4.588,4.783C91.677,19.245,90.424,21.959,86.893,21.959z M87.011,13.217c-0.557,0-1.005,0.145-1.336,0.428
				c-0.754,0.635-1.138,1.787-1.138,3.43c0,0.633,0.118,3.797,2.433,3.797c0.556,0,1.004-0.145,1.336-0.426
				c0.753-0.635,1.136-1.787,1.136-3.43C89.441,16.381,89.324,13.217,87.011,13.217z"/>
		</g>
		<g>
			<path fill="#A90533" d="M92.586,21.799v-0.475l0.184-0.014c0.158-0.012,0.558-0.074,0.835-0.389
				c0.291-0.324,0.306-1.098,0.306-2.701v-2.689c0-1.156-0.016-1.654-0.185-1.906c-0.193-0.275-0.616-0.305-0.844-0.322
				c-0.027,0-0.054-0.004-0.076-0.006l-0.182-0.018v-0.57l0.202,0.004c0.035,0.002,0.097,0.006,0.155,0.006
				c0.293,0,0.979-0.039,1.702-0.182c0.457-0.074,0.85-0.193,1.008-0.266l0.107-0.049l0.168,0.086v0.818
				c0.448-0.426,1.166-0.877,2.176-0.877c0.659,0,1.188,0.176,1.577,0.525l0.063,0.059v0.297l-0.793,1.451h-0.384l-0.057-0.09
				c-0.222-0.346-0.662-0.758-1.515-0.758c-0.392,0-0.729,0.096-1.028,0.299v4.742c0,1.24,0.042,1.826,0.203,2.07
				c0.264,0.395,1.062,0.426,1.298,0.426h0.199v0.521l-0.208-0.014c-1.034-0.053-1.808-0.078-2.362-0.078
				c-0.699,0-1.493,0-2.334,0.078L92.586,21.799z"/>
		</g>
		<g>
			<path fill="#A90533" d="M107.377,21.932l-0.251-0.084v-0.791c-0.467,0.344-1.393,0.881-2.631,0.881
				c-2.581,0-4.251-1.791-4.251-4.566c0-0.922,0.178-1.795,0.512-2.533c0.789-1.707,2.426-2.686,4.492-2.686
				c0.755,0,1.435,0.092,1.839,0.18v-2c0-1.172-0.017-1.799-0.185-2.051c-0.192-0.275-0.605-0.305-0.825-0.322
				c-0.03,0-0.057-0.004-0.077-0.006l-0.179-0.018l0.044-0.422h0.197c0.044,0,1.131-0.092,2.015-0.264
				c0.37-0.061,0.738-0.145,0.93-0.213l0.094-0.035l0.163,0.096l-0.008,0.094c-0.064,0.773-0.073,2.432-0.073,3.674v7.672
				c0,1.146,0.018,1.855,0.181,2.084c0.194,0.281,0.607,0.328,0.83,0.342c0.029,0.004,0.055,0.006,0.076,0.01l0.179,0.006v0.506
				h-0.197c-0.21,0-1.033,0.057-1.825,0.193c-0.46,0.074-0.797,0.141-0.961,0.215L107.377,21.932z M105.209,13.28
				c-1.837,0-2.729,1.254-2.729,3.834c0,1.047,0.295,3.48,3.025,3.48h0.088c0.332,0,0.953-0.049,1.494-0.383v-6.303
				C106.933,13.756,106.358,13.28,105.209,13.28z"/>
		</g>
	</g>
</g>
<g>
	<g>
		<path d="M38.873,27.05h1.379v6.672h3.235v1.176h-4.614V27.05z"/>
		<path d="M47.12,27.05h1.379v7.848H47.12V27.05z"/>
		<path d="M52.78,27.05h2.485c0.404,0,0.775,0.033,1.112,0.102s0.63,0.176,0.88,0.324c0.25,0.148,0.444,0.346,0.583,0.594
			c0.139,0.248,0.208,0.553,0.208,0.912c0,0.376-0.108,0.725-0.326,1.044c-0.219,0.32-0.554,0.54-1.005,0.66v0.048
			c0.563,0.096,0.993,0.299,1.29,0.605c0.298,0.309,0.446,0.727,0.446,1.254c0,0.393-0.075,0.732-0.226,1.021
			c-0.151,0.288-0.359,0.528-0.624,0.72c-0.266,0.192-0.582,0.334-0.945,0.426c-0.365,0.093-0.762,0.139-1.189,0.139H52.78V27.05z
			 M55.146,30.302c0.547,0,0.942-0.1,1.184-0.301c0.242-0.199,0.363-0.483,0.363-0.852c0-0.359-0.127-0.619-0.381-0.779
			c-0.253-0.16-0.634-0.24-1.141-0.24h-1.011v2.172H55.146z M55.325,33.817c0.57,0,1.01-0.107,1.32-0.324
			c0.309-0.216,0.463-0.547,0.463-0.996c0-0.408-0.151-0.709-0.452-0.906c-0.302-0.195-0.745-0.293-1.332-0.293h-1.166v2.52H55.325z
			"/>
		<path d="M66.509,34.897l-1.677-3.072h-1.189v3.072h-1.379V27.05h2.628c0.403,0,0.78,0.039,1.13,0.119
			c0.348,0.08,0.65,0.211,0.903,0.391c0.254,0.18,0.454,0.418,0.601,0.714s0.221,0.664,0.221,1.104c0,0.6-0.142,1.084-0.424,1.451
			c-0.28,0.369-0.655,0.633-1.123,0.793l1.855,3.275H66.509z M63.643,30.722h1.106c0.531,0,0.938-0.112,1.219-0.336
			c0.28-0.225,0.422-0.561,0.422-1.008c0-0.457-0.142-0.772-0.422-0.948c-0.281-0.177-0.688-0.265-1.219-0.265h-1.106V30.722z"/>
		<path d="M75.796,32.773h-2.615l-0.607,2.124H71.17l2.534-7.848h1.616l2.533,7.848h-1.451L75.796,32.773z M75.487,31.682
			l-0.274-0.96c-0.126-0.416-0.247-0.844-0.361-1.284c-0.115-0.44-0.229-0.876-0.34-1.308h-0.047
			c-0.111,0.439-0.222,0.877-0.333,1.313s-0.23,0.862-0.357,1.278l-0.272,0.96H75.487z"/>
		<path d="M85.529,34.897l-1.677-3.072h-1.189v3.072h-1.379V27.05h2.628c0.403,0,0.78,0.039,1.129,0.119s0.65,0.211,0.904,0.391
			s0.454,0.418,0.6,0.714c0.147,0.296,0.221,0.664,0.221,1.104c0,0.6-0.141,1.084-0.423,1.451c-0.28,0.369-0.656,0.633-1.123,0.793
			l1.854,3.275H85.529z M82.663,30.722h1.105c0.531,0,0.938-0.112,1.22-0.336c0.28-0.225,0.422-0.561,0.422-1.008
			c0-0.457-0.142-0.772-0.422-0.948c-0.281-0.177-0.688-0.265-1.22-0.265h-1.105V30.722z"/>
		<path d="M90.718,27.05h1.379v7.848h-1.379V27.05z"/>
		<path d="M96.383,27.05h4.685v1.176h-3.306v2.004h2.795v1.176h-2.795v2.316h3.425v1.176h-4.804V27.05z"/>
		<path d="M105.48,32.941c0.276,0.265,0.594,0.478,0.951,0.642c0.356,0.164,0.713,0.246,1.069,0.246
			c0.444,0,0.781-0.092,1.011-0.275s0.345-0.428,0.345-0.732c0-0.16-0.028-0.296-0.089-0.408c-0.059-0.111-0.143-0.209-0.25-0.293
			c-0.106-0.084-0.233-0.162-0.38-0.234c-0.147-0.072-0.308-0.145-0.481-0.217l-1.07-0.467c-0.19-0.08-0.379-0.181-0.564-0.301
			c-0.187-0.12-0.355-0.264-0.506-0.432s-0.271-0.364-0.362-0.588c-0.092-0.225-0.138-0.48-0.138-0.769
			c0-0.312,0.066-0.602,0.196-0.87c0.131-0.268,0.312-0.502,0.541-0.701c0.23-0.2,0.506-0.356,0.827-0.469
			c0.321-0.111,0.671-0.168,1.053-0.168c0.451,0,0.887,0.09,1.307,0.27c0.421,0.181,0.781,0.423,1.083,0.727l-0.701,0.889
			c-0.255-0.209-0.516-0.373-0.785-0.492c-0.27-0.121-0.57-0.18-0.903-0.18c-0.373,0-0.671,0.082-0.893,0.245
			c-0.222,0.164-0.333,0.39-0.333,0.679c0,0.151,0.034,0.281,0.101,0.39c0.068,0.108,0.159,0.204,0.274,0.288
			s0.247,0.16,0.398,0.228c0.15,0.068,0.305,0.134,0.464,0.198l1.059,0.443c0.229,0.097,0.439,0.209,0.63,0.336
			c0.189,0.129,0.354,0.277,0.493,0.445s0.248,0.361,0.327,0.582c0.079,0.219,0.119,0.473,0.119,0.762
			c0,0.32-0.063,0.619-0.19,0.899s-0.312,0.526-0.553,0.738c-0.242,0.212-0.535,0.38-0.881,0.504
			c-0.344,0.124-0.735,0.187-1.171,0.187c-0.523,0-1.028-0.101-1.517-0.301c-0.487-0.199-0.917-0.484-1.289-0.852L105.48,32.941z"/>
	</g>
</g>
<g>
	<g>
		<path fill="#A13229" d="M18.252,6.316c-8.285,0-15.025,6.637-15.025,14.793c0,8.155,6.74,14.792,15.025,14.792
			c8.287,0,15.026-6.637,15.026-14.792C33.279,12.954,26.54,6.316,18.252,6.316z M18.252,34.319c-7.41,0-13.42-5.916-13.42-13.21
			c0-7.295,6.01-13.211,13.42-13.211c7.412,0,13.422,5.916,13.422,13.211C31.674,28.403,25.665,34.319,18.252,34.319z"/>
		<path fill="#F7CD83" d="M32.191,21.109c0,7.575-6.243,13.716-13.94,13.716c-7.695,0-13.936-6.141-13.936-13.716
			c0-7.578,6.24-13.721,13.936-13.721C25.948,7.389,32.191,13.531,32.191,21.109z"/>
		<path fill="#A13229" d="M29.032,27.235c-0.779-0.986-1.219-2.201-1.219-3.465c0-0.322,0.027-0.646,0.085-0.971
			c0.001,0,0.005-0.016,0.005-0.018c0.288-1.599,1.26-2.957,2.611-3.793c-1.562-0.331-2.948-1.284-3.779-2.7
			c-0.513-0.874-0.765-1.846-0.765-2.818c0-0.583,0.093-1.165,0.273-1.724c-1.407,0.728-3.088,0.865-4.644,0.31
			c-1.548-0.558-2.741-1.734-3.343-3.19c-0.602,1.456-1.798,2.633-3.356,3.194c-1.544,0.552-3.221,0.414-4.629-0.315
			c0.18,0.559,0.273,1.136,0.273,1.719c0,0.975-0.256,1.957-0.771,2.842c-0.828,1.403-2.215,2.353-3.774,2.683
			c1.337,0.827,2.303,2.169,2.605,3.752c0,0,0.018,0.109,0.019,0.113c0.051,0.307,0.077,0.613,0.077,0.916
			c0,1.264-0.44,2.48-1.217,3.467c1.575-0.213,3.203,0.217,4.464,1.252l0.045,0.039c0,0,0.03,0.025,0.046,0.039
			c1.214,1.039,1.903,2.521,1.963,4.061c1.072-1.163,2.604-1.869,4.265-1.871c1.646,0,3.174,0.703,4.247,1.869
			c0.06-1.57,0.776-3.078,2.047-4.129C25.823,27.456,27.452,27.024,29.032,27.235z"/>
		<ellipse fill="#F7CD83" cx="18.264" cy="21.109" rx="9.167" ry="9.024"/>
		<g>
			<g>
				<g>
					<g>
						<path fill="#005881" d="M8.221,23.507c0-0.07-0.014-0.137-0.018-0.205c-1.279,1.262-2.101,2.756-2.101,3.816
							c0,0.176,0.031,0.334,0.076,0.482C7.386,26.679,8.221,25.013,8.221,23.507z M6.491,28.086
							c0.767,0.798,2.792,0.989,4.827,0.464C9.982,27.706,7.96,27.508,6.491,28.086z M25.196,28.552
							c2.035,0.523,4.062,0.332,4.829-0.466C28.556,27.508,26.532,27.706,25.196,28.552z M28.294,23.503
							c0,1.508,0.833,3.178,2.042,4.1c0.046-0.148,0.076-0.309,0.076-0.482c0-1.062-0.821-2.557-2.102-3.818
							C28.307,23.368,28.294,23.435,28.294,23.503z M21.332,11.43c-0.557-2.044-1.739-3.72-2.8-3.976
							C18.754,9.045,19.941,10.719,21.332,11.43z M15.185,11.43c1.389-0.711,2.577-2.386,2.799-3.976
							C16.923,7.709,15.741,9.386,15.185,11.43z M11.983,29.91c0,1.778,0.527,3.343,1.333,3.878
							c0.065-0.303,0.127-0.607,0.127-0.934c0-1.339-0.549-2.768-1.411-3.693C12.012,29.412,11.983,29.665,11.983,29.91z
							 M28.471,22.422c1.962-0.894,3.413-2.303,3.475-3.38C30.4,19.524,28.938,20.958,28.471,22.422z M14.331,11.734
							c-1.713-1.167-3.673-1.658-4.666-1.167C10.845,11.609,12.775,12.089,14.331,11.734z M9.976,13.698
							c0-1.004-0.265-2.013-0.756-2.787c-0.283,0.368-0.431,0.927-0.431,1.606c0,0.931,0.274,2.06,0.778,3.142
							C9.817,15.066,9.976,14.4,9.976,13.698z M13.848,33.978c1.088,0.131,2.741-1.006,3.967-2.738
							C16.256,31.43,14.601,32.565,13.848,33.978z M31.844,18.521c-0.428-1.003-2.317-1.876-4.465-2.062
							C28.333,17.699,30.22,18.581,31.844,18.521z M4.568,19.041c0.06,1.075,1.512,2.486,3.476,3.381
							C7.577,20.958,6.114,19.524,4.568,19.041z M23.07,32.851c0,0.328,0.062,0.633,0.128,0.938
							c0.806-0.535,1.334-2.098,1.334-3.875c0-0.246-0.03-0.5-0.052-0.752C23.618,30.087,23.07,31.515,23.07,32.851z M26.85,10.566
							c-0.996-0.491-2.953,0-4.664,1.167C23.724,12.08,25.683,11.592,26.85,10.566z M9.137,16.459
							c-2.145,0.185-4.037,1.057-4.465,2.06C6.294,18.579,8.179,17.699,9.137,16.459z M18.698,31.237
							c1.227,1.734,2.881,2.871,3.968,2.74C21.912,32.562,20.257,31.427,18.698,31.237z M26.951,15.66
							c0.5-1.082,0.776-2.208,0.776-3.138c0-0.68-0.149-1.24-0.432-1.607c-0.491,0.774-0.756,1.783-0.756,2.786
							C26.54,14.4,26.697,15.067,26.951,15.66z"/>
					</g>
				</g>
				<g>
					<path fill="#005881" d="M14.594,17.108c-1.467-0.424-2.932-0.605-4.237-0.567c0,0.001,0,0.001,0,0.001
						c0.614,1.175,1.514,2.379,2.643,3.458l4.298,0.558L14.594,17.108z"/>
					<path fill="#005881" d="M12.842,20.363c-1.406,0.604-2.65,1.395-3.63,2.251v0.002c1.237,0.509,2.711,0.862,4.277,0.977
						l3.675-2.299L12.842,20.363z"/>
					<path fill="#005881" d="M13.611,23.967c-0.683,1.354-1.122,2.748-1.309,4.025c0,0,0,0.001,0.001,0.001
						c1.282-0.395,2.65-1.059,3.927-1.97l1.316-4.086L13.611,23.967z"/>
					<path fill="#005881" d="M23.668,19.973c1.088-1.028,1.965-2.172,2.577-3.292v-0.002c-1.356-0.064-2.89,0.106-4.422,0.54
						l-2.609,3.339L23.668,19.973z"/>
					<path fill="#005881" d="M21.648,16.828c0.165-1.48,0.087-2.913-0.173-4.16l-0.001-0.002c-1.078,0.808-2.135,1.901-3.024,3.197
						l0.186,4.216L21.648,16.828z"/>
					<path fill="#005881" d="M18.061,15.707c-0.844-1.244-1.84-2.3-2.861-3.094c0,0,0,0-0.001,0
						c-0.296,1.294-0.393,2.79-0.234,4.336l2.916,3.131L18.061,15.707z"/>
					<path fill="#005881" d="M27.28,22.771c-1.001-0.91-2.286-1.75-3.747-2.385l-4.185,0.907l3.798,2.373
						C24.656,23.565,26.077,23.243,27.28,22.771L27.28,22.771z"/>
					<path fill="#005881" d="M20.325,26.146c1.226,0.888,2.534,1.546,3.77,1.95v-0.002c-0.155-1.181-1.075-3.529-1.352-4.219
						l-3.774-1.937L20.325,26.146z"/>
					<path fill="#005881" d="M16.559,26.257c0.359,1.466,0.934,2.805,1.619,3.898h0.001c0.731-1.119,1.346-2.498,1.73-4.014
						l-1.652-3.948L16.559,26.257z"/>
				</g>
			</g>
		</g>
		<g>
			<g>
				<path fill="#A13229" d="M8.215,21.109c0,5.454,4.507,9.893,10.05,9.893c5.54,0,10.048-4.438,10.048-9.893
					c0-5.455-4.508-9.893-10.048-9.893C12.722,11.216,8.215,15.655,8.215,21.109z M8.636,21.109c0-5.227,4.318-9.478,9.628-9.478
					c5.308,0,9.628,4.251,9.628,9.478c0,5.226-4.32,9.478-9.628,9.478C12.954,30.587,8.636,26.335,8.636,21.109z"/>
				<path fill="#A13229" d="M20.33,21.105c0,1.129-0.929,2.041-2.074,2.041c-1.141,0-2.071-0.912-2.071-2.041
					c0-1.126,0.93-2.038,2.071-2.038C19.401,19.067,20.33,19.979,20.33,21.105z"/>
			</g>
		</g>
		<path fill="#F7CD83" d="M16.084,21.107c0,1.182,0.976,2.144,2.176,2.144c1.201,0,2.178-0.962,2.178-2.144
			c0-1.182-0.977-2.142-2.178-2.142C17.06,18.965,16.084,19.925,16.084,21.107z M16.295,21.107c0-1.068,0.881-1.936,1.966-1.936
			c1.084,0,1.969,0.868,1.969,1.936c0,1.069-0.884,1.938-1.969,1.938C17.176,23.045,16.295,22.176,16.295,21.107z"/>
	</g>
</g>
</svg>
